<?xml version="1.0" encoding="UTF-8"?>
<svg id="Capa_1" xmlns="http://www.w3.org/2000/svg" width="24" height="24" viewBox="0 0 24 24">
  <defs>
    <style>
      .cls-1, .cls-2 {
        fill: #545386;
      }

      .cls-2 {
        fill-rule: evenodd;
      }
    </style>
  </defs>
  <path class="cls-2" d="M12,0C5.37,0,0,5.37,0,12s5.37,12,12,12,12-5.37,12-12S18.63,0,12,0ZM12,22.99c-6.07,0-10.99-4.92-10.99-10.99S5.93,1.01,12,1.01s10.99,4.92,10.99,10.99-4.92,10.99-10.99,10.99Z"/>
  <g>
    <path class="cls-1" d="M8.59,5.54v-1.21s.2-.4.61-.61h2.25s.82.13.89.61v1.21l1,1-.37.37h-4.92l-.37-.36.91-1Z"/>
    <rect class="cls-1" x="7.49" y="8.15" width="6.4" height=".65" rx=".14" ry=".14"/>
    <rect class="cls-1" x="7.49" y="10.14" width="6.4" height=".65" rx=".14" ry=".14"/>
    <g>
      <path class="cls-1" d="M16.64,16.37l.95-.81,2.41,2.49s-.2.81-.82.71l-2.54-2.38Z"/>
      <path class="cls-1" d="M15.3,10.92c-1.66,0-3.01,1.34-3.01,2.98s1.35,2.98,3.01,2.98,3.01-1.34,3.01-2.98-1.35-2.98-3.01-2.98ZM15.29,16.36c-1.36,0-2.46-1.09-2.46-2.44s1.1-2.44,2.46-2.44,2.46,1.09,2.46,2.44-1.1,2.44-2.46,2.44Z"/>
    </g>
    <g>
      <path class="cls-1" d="M15.3,16.89c-.78,0-1.48-.3-2.01-.78h-6.58c-.21,0-.38-.18-.38-.4V6.52c0-.22.17-.4.38-.4h8.05c.21,0,.38.18.38.4v4.41c.05,0,.11-.02.16-.02.08,0,.16.02.24.02v-4.76c0-.27-.17-.5-.38-.5H6.38c-.21,0-.38.22-.38.5v12.57c0,.27.17.5.38.5h8.79c.21,0,.38-.22.38-.5v-1.89c-.08,0-.16.02-.24.02Z"/>
      <path class="cls-1" d="M7.68,6.54h-.75s-.23.02-.23.36v8.85s-.08.35.49.35h6.1l-.8-1.63.35-2.29.25-.15,1.23-.74.55-.38v-4.01s.08-.26-.23-.36h-1.29l-.41-.42h2.25l.13.29v4.7h-.54l-1.1.41-.76.94-.61,1.43.31,1.08.99,1.13s-.12.38-.24.47-7.14-.25-7.14-.25V6.13l.63-.23h1.44l-.59.65Z"/>
    </g>
    <rect class="cls-1" x="7.57" y="12.25" width="4.27" height=".65" rx=".14" ry=".14"/>
    <rect class="cls-1" x="7.57" y="14.37" width="4.27" height=".65" rx=".14" ry=".14"/>
  </g>
</svg>