<?xml version="1.0" encoding="UTF-8"?>
<svg id="Capa_1" xmlns="http://www.w3.org/2000/svg" width="32" height="32" viewBox="0 0 32 32">
  <defs>
    <style>
      .cls-1 {
        fill: #545386;
      }
    </style>
  </defs>
  <path class="cls-1" d="M16,0C7.16,0,0,7.16,0,16s7.16,16,16,16,16-7.16,16-16S24.84,0,16,0ZM16,30.5c-8.01,0-14.5-6.49-14.5-14.5S7.99,1.5,16,1.5s14.5,6.49,14.5,14.5-6.49,14.5-14.5,14.5Z"/>
  <g>
    <path class="cls-1" d="M25.17,8.67H6.83c-.6,0-1.09.49-1.09,1.09v12.47c0,.6.49,1.09,1.09,1.09h18.34c.6,0,1.09-.49,1.09-1.09v-12.47c0-.6-.49-1.09-1.09-1.09ZM25.33,21.88c0,.28-.23.5-.5.5H7.15c-.28,0-.5-.23-.5-.5v-11.89c0-.28.23-.5.5-.5h17.67c.28,0,.5.23.5.5v11.89Z"/>
    <path class="cls-1" d="M12.32,15.28c.06-.06.11-.12.14-.2l3.38-4.68-4.39,3.66c-.21.13-.35.38-.35.66,0,.42.32.77.72.77.18,0,.34-.07.46-.18h0s.03-.03.03-.03Z"/>
    <path class="cls-1" d="M13.46,11.77l.91-.71s-2.13-1.39-4.46-.28c0,0-2.5,1.39-2.36,3.81,0,0-.11.57.48.6,0,0,.57,0,.57-.62,0,0-.14-1.9,1.93-2.9,0,0,1.31-.68,2.92.11Z"/>
    <path class="cls-1" d="M14.62,12.88l.65-.85s.94,1.02.91,2.73c0,0-.03.45-.57.45,0,0-.39.03-.51-.5,0,0,.13-1.09-.48-1.82Z"/>
    <path class="cls-1" d="M24.25,10.69h0s-5.78,0-5.78,0c-.1,0-.18.08-.18.19s.08.19.18.19h0s5.78,0,5.78,0c.1,0,.18-.08.18-.19s-.08-.19-.18-.19Z"/>
    <path class="cls-1" d="M24.26,12.05h0s-5.78,0-5.78,0c-.1,0-.18.08-.18.19s.08.19.18.19h0s5.78,0,5.78,0c.1,0,.18-.08.18-.19s-.08-.19-.18-.19Z"/>
    <path class="cls-1" d="M24.23,13.36h0s-5.78,0-5.78,0c-.1,0-.18.08-.18.19s.08.19.18.19h0s5.78,0,5.78,0c.1,0,.18-.08.18-.19s-.08-.19-.18-.19Z"/>
    <path class="cls-1" d="M24.26,14.68h0s-5.78,0-5.78,0c-.1,0-.18.08-.18.19s.08.19.18.19h0s5.78,0,5.78,0c.1,0,.18-.08.18-.19s-.08-.19-.18-.19Z"/>
    <polygon class="cls-1" points="24 20.46 24 16.41 22.71 16.41 22.71 20.46 21.99 20.46 21.99 19.37 20.76 19.37 20.76 20.46 20.02 20.46 20.02 17.14 18.78 17.14 18.78 20.46 18.06 20.46 18.06 18.7 16.85 18.7 16.85 20.46 16.11 20.46 16.11 20.91 24.67 20.91 24.67 20.46 24 20.46"/>
    <path class="cls-1" d="M14.47,17.3h0s-5.28,0-5.28,0c-.09,0-.17.12-.17.27s.07.27.17.27h0s5.28,0,5.28,0c.09,0,.17-.12.17-.27s-.07-.27-.17-.27Z"/>
    <path class="cls-1" d="M14.47,18.91h0s-5.28,0-5.28,0c-.09,0-.17.12-.17.27s.07.27.17.27h0s5.28,0,5.28,0c.09,0,.17-.12.17-.27s-.07-.27-.17-.27Z"/>
    <path class="cls-1" d="M14.47,20.55h0s-5.28,0-5.28,0c-.09,0-.17.12-.17.27s.07.27.17.27h0s5.28,0,5.28,0c.09,0,.17-.12.17-.27s-.07-.27-.17-.27Z"/>
    <ellipse class="cls-1" cx="8.17" cy="17.56" rx=".51" ry=".53"/>
    <ellipse class="cls-1" cx="8.18" cy="19.19" rx=".51" ry=".53"/>
    <ellipse class="cls-1" cx="8.18" cy="20.8" rx=".51" ry=".53"/>
  </g>
</svg>