<?xml version="1.0" encoding="UTF-8"?>
<svg id="Capa_1" xmlns="http://www.w3.org/2000/svg" width="64" height="64" viewBox="0 0 64 64">
  <defs>
    <style>
      .cls-1 {
        fill: #535386;
      }

      .cls-2 {
        fill: #545386;
      }
    </style>
  </defs>
  <path class="cls-2" d="M32,0C14.33,0,0,14.33,0,32s14.33,32,32,32,32-14.33,32-32S49.67,0,32,0ZM32,61.5c-16.29,0-29.5-13.21-29.5-29.5S15.71,2.5,32,2.5s29.5,13.21,29.5,29.5-13.21,29.5-29.5,29.5Z"/>
  <path class="cls-1" d="M57.81,39.85c-7.57,1.87-9.34-3.46-15.63-3.24.29-1.9.31-4.13.09-6.61,1.78.59,3.9.09,5.12-1.3.07-.08.02-.2-.08-.22-2.41-.33-2.15-3.71-4.08-5.09,3.15.74,6.69-.85,6.32-4.61,0-.08-.11-.1-.15-.04-1.22,2.05-2.53,2.81-4.08,2.78-1.53-.03-3.11-.9-5.47-.69,1.13-.74,1.96-1.84,2.41-3.26-1.66.91-4.01.25-5.91.3-3.39-.1-6.55,2.29-5.87,5.83-1.1-.18-2.04.28-2.58.92.03-3.37-6.01-2.13-8.97-6.5-.03-.05-.11.04-.11.11.13,2.1.8,4.05,1.88,5.48,1.4,1.85,3.44,2.73,5.79,2.7-1.66,2.02-3.94,2.09-4.97,2.08.38,2.14,2.2,3,4.32,2.42-.39,1.49-.42,3.05-.08,4.49.26-.04,1.38-.21,2.85-.22.8.02,1.62-.11,2.26-.46.3,1.29.25,2.76-.16,3.67-1.41-.37-2.91-.33-4.25.23-.35-6.13-8.66-8-13.85-5.53-.93.44-2.18,1.34-2.17,2.29.06.29.41.54,1.02.53,1.56-.02,3.08-.62,4.16-2.09.61.76,1.77.42,2.45-.25.54-.52,1.27-.86,2-.7,3.45.88,5.73,3.01,5.67,5.77,0,.13-.17.18-.25.07-2.94-4.23-7.75-1.1-10.5,1.18-4.64,3.38-4.14-.19-7.58-.34-.53,0-1.01.14-1.22.35-.14.13-.17.35-.11.6.88,2.3,4.96,2.26,7.13,1.63,3.89-1.01,6.97-4.74,10.58-1.43-.47.62-.82,1.34-1.06,2.13-.11.6.42.55.86.55,3.3-.03,6.03,3.07,8.92,3.04,5.96.03,6.63-5.53,11.44-5.8,2.8.03,5.6,1.81,8.54,1.74,2.1-.03,3.78-.83,5.42-2.26.1-.08.05-.3-.1-.27M11.32,35.34c-.22-.06-.28-.25-.15-.43,1.3-1.81,4.33-2.15,4.67-2.19h.07c-.68,1.63-3.08,2.91-4.59,2.62M17.56,32.62c.24,0,.47,0,.71.02-1.72,2.57-3.6.2-.71-.02M7.06,41.02c-.43-.47-.04-1.02.53-.98,1.58-.02,2.41,1.66,3.87,1.77v.13c-1.4.2-3.86-.03-4.4-.92M44.02,25.19c.68,1.66,1.09,2.9,2.53,3.59-2.03,1.73-5.63.94-6.7-1.47-.28-.75-1.5-2.32-2.89-2.27h-.15c1.31-2.45,5.92-2.83,7.22.15M40.68,21.32c1.81.04,2.73.58,4.07.68,1.42.11,3.23-.27,4.33-2.02-.22,1.72-1.89,2.91-3.61,3.01-2.57.15-2.46-.33-4.29-.46-1.87-.13-3.69.33-4.75,2.17-.43.79-1.32.74-2.1.62.86-3.34,4.49-4.12,6.34-4.01M36.15,26.42l-.09-.23c1.28.97,1.87,2.31,1.56,3.61-.55,1.31-1.62.39-1.31-1.09.07-.48.13-1.58-.16-2.3M36.36,18.45c1.61.01,3.19.35,4.79,0-1.74,3.94-6.14,1.66-7.69,7.46-.85.45-1.46-1.17-2.4-1.95-.7-3.76,2.36-5.53,5.3-5.51M31.22,29.54c-.51-1.96.91-3.11,1.21-3.06.36.92-.2,3.09-1.21,3.06M19.53,19.74l-.04-.2c2.46,3.34,9.28,2.61,7.51,6.22-3.73.56-6.93-2.4-7.47-6.02M24.54,30.57c-1.15.03-1.96-.59-2.34-1.58,5.29-.21,4.94-4.79,7.87-4.81.8-.04,1.19.69,1.68,1.33-1.66-.42-3.04.85-3.58,2.26-.36.72-.68,1.49-1.25,2-.66.6-1.44.78-2.38.8M26.17,34.83c-.24-1.35-.15-2.78.27-4.13,2.24-.92,1.83-4.09,4.16-4.68.52-.12,1.05-.07,1.54.1-1.43.6-1.92,2.63-1.27,3.96.58.07,1.26-.21,1.64-.96-.46,3.1-2.71,1.62-4.16,4.02.11.12,1.13.83,2.2,1.19-1.17.56-3.36.27-4.37.5M29.05,33.02c.49-.62,1.1-.86,1.71-1.08,3.56-.85,1.37-5.65,3.81-5.98.14,0,.3.03.46.06,1.4.58.52,2.37.67,3.69.04.34.19.74.42.96,1.19,1.17,2.56-.48,2.12-2.06-.2-.71-.54-1.39-.92-1.89-.34-.45-.67-.73-.63-1.16,2.26-.09,3.5,2.9,3,4.95-1.35,4.36-7.22,4.8-10.64,2.51M31.38,34.59c.98.25,2.03.36,3.08.31.19,1.63-.09,4.08-.62,5.65-.59-.91-1.49-1.6-2.62-2,.69-1.76.16-3.96.16-3.96M34.23,42.35c.17-1.8,2.26-3.89,5.14-4.79l.1-.03c-.55,3.73-4.06,7.17-6.52,7.63-.61.11-.5.06-.14-.19.49-.34,1.29-1.18,1.43-2.62M34.45,40.29c.54-1.91.67-4.18.51-5.44,1.36-.2,2.67-.83,3.7-1.78l.06-.05c.65.89.92,2.61.8,3.92-2.05.51-3.82,1.67-5.07,3.35M13.81,41.42l-.05-.12c2.57-1.37,4.45-3.95,7.93-4.17,1.72-.08,3.9,1.4,2.41,3.18-3.83-3.28-6.2-.38-10.29,1.11M23.43,42.32c1.43-4.22,8.96-4.96,10.2-.61.13.46-.38.83-.77.56-.98-.7-2.13-1.3-3.64-1.24-1.63.01-2.86.65-3.84,1.16-.56.25-2.09,1.25-1.95.14M26.22,43.48c-.67-.23-1-.65-.08-1.13.85-.44,1.73-.78,3.04-.81,1.52-.07,2.34.36,3.25,1.04.7.52.68,1.59-.05,2.08-2.15,1.45-4.02-.43-6.16-1.18M37.69,43.74c-1.66,1.33-3.37,2.4-5.54,2.09-.06,0-.06-.1,0-.1,2.92-.26,5.38-2.37,6.75-5.06,1.39-2.72,1.58-5.72.19-8.02,1.03-1.11,1.31-2.33,1.19-3.69l-.02-.17c.42.42.91.76,1.47,1,.87,7.78-.84,11.39-4.04,13.95M44.32,40.03c-1.84-.06-2.67.49-3.71,1.16.72-1.13,1.23-2.61,1.49-4.09,5.61-.38,7.47,4.44,14.12,3.57-4.99,2.94-7.61-.52-11.9-.65"/>
</svg>