<?xml version="1.0" encoding="UTF-8"?>
<svg id="Capa_1" xmlns="http://www.w3.org/2000/svg" width="96" height="96" viewBox="0 0 96 96">
  <defs>
    <style>
      .cls-1 {
        fill: #545386;
      }
    </style>
  </defs>
  <path class="cls-1" d="M48,0C21.49,0,0,21.49,0,48s21.49,48,48,48,48-21.49,48-48S74.51,0,48,0ZM48,92.56c-24.61,0-44.56-19.95-44.56-44.56S23.39,3.44,48,3.44s44.56,19.95,44.56,44.56-19.95,44.56-44.56,44.56Z"/>
  <g>
    <path class="cls-1" d="M8.24,41.27h8.62v2.62h-5.42v3.22h5.07v2.6h-5.07v5.67h-3.2v-14.11Z"/>
    <path class="cls-1" d="M19.28,41.45c1.17-.19,2.7-.29,4.31-.29,2.68,0,4.42.48,5.78,1.51,1.47,1.09,2.39,2.83,2.39,5.32,0,2.7-.98,4.56-2.34,5.72-1.49,1.24-3.75,1.82-6.51,1.82-1.65,0-2.83-.1-3.62-.21v-13.86ZM22.49,52.97c.27.06.71.06,1.11.06,2.89.02,4.78-1.57,4.78-4.94.02-2.93-1.7-4.48-4.44-4.48-.71,0-1.17.06-1.44.13v9.23Z"/>
    <path class="cls-1" d="M37.07,41.27v14.11h-3.2v-14.11h3.2Z"/>
    <path class="cls-1" d="M51.77,49.98c-.06-1.7-.13-3.75-.13-5.8h-.06c-.44,1.8-1.02,3.81-1.57,5.46l-1.72,5.51h-2.49l-1.51-5.46c-.46-1.65-.94-3.66-1.28-5.51h-.04c-.08,1.91-.15,4.08-.25,5.84l-.25,5.36h-2.95l.9-14.11h4.25l1.38,4.71c.44,1.63.88,3.39,1.19,5.05h.06c.4-1.63.88-3.5,1.34-5.07l1.51-4.69h4.17l.78,14.11h-3.12l-.21-5.4Z"/>
    <path class="cls-1" d="M57.22,53.68c0-1.13.77-1.95,1.88-1.95s1.86.8,1.86,1.95-.75,1.93-1.88,1.93-1.86-.82-1.86-1.93Z"/>
    <path class="cls-1" d="M73.37,54.98c-.59.29-1.91.61-3.62.61-4.88,0-7.39-3.04-7.39-7.06,0-4.82,3.43-7.5,7.7-7.5,1.66,0,2.91.33,3.48.63l-.65,2.53c-.65-.27-1.55-.52-2.68-.52-2.53,0-4.5,1.53-4.5,4.67,0,2.83,1.67,4.61,4.52,4.61.96,0,2.03-.21,2.66-.46l.48,2.49Z"/>
    <path class="cls-1" d="M87.76,48.18c0,4.63-2.81,7.43-6.93,7.43s-6.64-3.16-6.64-7.18c0-4.23,2.7-7.39,6.87-7.39s6.7,3.25,6.7,7.14ZM77.56,48.36c0,2.76,1.3,4.71,3.43,4.71s3.39-2.05,3.39-4.79c0-2.53-1.21-4.71-3.41-4.71s-3.41,2.05-3.41,4.79Z"/>
  </g>
</svg>