<?xml version="1.0" encoding="UTF-8"?>
<svg id="Capa_1" xmlns="http://www.w3.org/2000/svg" width="32" height="32" viewBox="0 0 32 32">
  <defs>
    <style>
      .cls-1, .cls-2, .cls-3 {
        fill: none;
        stroke: #545386;
        stroke-miterlimit: 10;
        stroke-width: .5px;
      }

      .cls-4 {
        fill: #545386;
      }

      .cls-2 {
        stroke-dasharray: .56 .56;
      }

      .cls-3 {
        stroke-dasharray: .56 .56 .56 .56;
      }
    </style>
  </defs>
  <path class="cls-4" d="M16,0C7.16,0,0,7.16,0,16s7.16,16,16,16,16-7.16,16-16S24.84,0,16,0ZM16,30.5c-8.01,0-14.5-6.49-14.5-14.5S7.99,1.5,16,1.5s14.5,6.49,14.5,14.5-6.49,14.5-14.5,14.5Z"/>
  <g>
    <g>
      <path class="cls-4" d="M24.25,12.19l-.57.71.24,1.06,1.87,8.36-3.56-1.11-1.55-10.32-.38-.11-3.18,1.41-3.61-1.52-2.96,1.68-3.57-1.7-1.71,11.1,4.34,1.52,4.13-1.47,4.22,1.48,3.96-1.44,4.78,1.57-2.47-11.24ZM9.32,22.4l-3.23-1.14,1.49-9.56,2.44,1.06-.71,9.64ZM13.47,21.15l-3.45,1.25.76-9.31,2.69-1.71v9.77ZM14.12,21.2v-9.5h.11l2.71,1.09.62,9.61-3.45-1.19ZM18.27,22.4l-.81-9.58h.11l2.52-1.11,1.36,9.5-3.18,1.19Z"/>
      <circle class="cls-4" cx="7.63" cy="20.31" r=".35"/>
      <circle class="cls-4" cx="11.7" cy="14.55" r=".35"/>
      <circle class="cls-4" cx="12.9" cy="16.89" r=".35"/>
      <circle class="cls-4" cx="18.73" cy="20.12" r=".35"/>
      <circle class="cls-4" cx="23.78" cy="19.41" r=".35"/>
      <path class="cls-4" d="M9.67,15.96c-.16-1.17-1.28-1.63-1.28-1.63-1.63-.6-2.5.68-2.5.68-.79,1.22-.22,2.36-.22,2.36l1.95,2.88,1.71-2.52c.43-.68.33-1.76.33-1.76ZM7.61,16.94c-.37,0-.68-.3-.68-.68s.3-.68.68-.68.68.3.68.68-.3.68-.68.68Z"/>
      <path class="cls-4" d="M13.84,10.36c-.16-1.17-1.28-1.63-1.28-1.63-1.63-.6-2.5.68-2.5.68-.79,1.22-.22,2.36-.22,2.36l1.95,2.88,1.71-2.52c.43-.68.33-1.76.33-1.76ZM11.77,11.34c-.37,0-.68-.3-.68-.68s.3-.68.68-.68.68.3.68.68-.3.68-.68.68Z"/>
      <path class="cls-4" d="M20.81,15.79c-.16-1.17-1.28-1.63-1.28-1.63-1.63-.6-2.5.68-2.5.68-.79,1.22-.22,2.36-.22,2.36l1.95,2.88,1.71-2.52c.43-.68.33-1.76.33-1.76ZM18.75,16.76c-.37,0-.68-.3-.68-.68s.3-.68.68-.68.68.3.68.68-.3.68-.68.68Z"/>
      <path class="cls-4" d="M24.72,10.49c-.16-1.17-1.28-1.63-1.28-1.63-1.63-.6-2.5.68-2.5.68-.79,1.22-.22,2.36-.22,2.36l1.95,2.88,1.71-2.52c.43-.68.33-1.76.33-1.76ZM22.66,11.47c-.37,0-.68-.3-.68-.68s.3-.68.68-.68.68.3.68.68-.3.68-.68.68Z"/>
    </g>
    <g>
      <path class="cls-1" d="M11.97,14.78s.11-.05.27-.12"/>
      <path class="cls-2" d="M12.78,14.5c.27-.06.56-.09.84-.05"/>
      <path class="cls-3" d="M13.88,14.53c.34.14.61.45.68,1.06,0,0,0,6.49,3.69,4.7"/>
      <path class="cls-1" d="M18.5,20.16c.08-.05.17-.1.26-.15"/>
    </g>
  </g>
</svg>