<?xml version="1.0" encoding="UTF-8"?>
<svg id="Capa_1" xmlns="http://www.w3.org/2000/svg" width="32" height="32" viewBox="0 0 32 32">
  <defs>
    <style>
      .cls-1 {
        fill: #545386;
      }
    </style>
  </defs>
  <path class="cls-1" d="M16,0C7.16,0,0,7.16,0,16s7.16,16,16,16,16-7.16,16-16S24.84,0,16,0ZM16,30.5c-8.01,0-14.5-6.49-14.5-14.5S7.99,1.5,16,1.5s14.5,6.49,14.5,14.5-6.49,14.5-14.5,14.5Z"/>
  <g>
    <path class="cls-1" d="M24.46,20.18v-2.29l.88-.94-.58-.71c.21-.34.35-.72.43-1.13l.96-.14-.04-1.35-.97-.08c-.1-.4-.27-.77-.5-1.1l.55-.75-.76-.71v-2.04c0-.14-.12-.26-.26-.26,0,0,0,0,0,0,0,0,0,0,0,0h-13.03v-.69c0-.14-.12-.26-.26-.26h-2.36c-.14,0-.26.12-.26.26v.69h-2.12s-.01,0-.02,0c0,0-.01,0-.02,0-.13,0-.24.11-.24.24v1.38c0,.13.11.24.24.24s.24-.11.24-.24v-1.06h1.91v1.21c0,.14.12.26.26.26h2.36c.14,0,.26-.12.26-.26v-1.23h12.78v1.79l-.43.36c-.34-.2-.72-.35-1.13-.43l-.14-.92-1.35.04-.08.93c-.39.1-.76.27-1.1.5l-.75-.55-.93.99.6.71c-.2.34-.35.72-.43,1.13l-.96.14.04,1.35.96.09c.1.4.27.77.5,1.1l-.55.75.99.92.71-.6c.34.2.72.35,1.13.43l.13.99,1.35-.04.08-1c.39-.1.77-.27,1.1-.5l.2.15v2.9h-.63s-.48-.71-2.3-.8h-2.79s-.59-.06-.58.3c0,0-.05.41.61.35h3.22s1.7,0,2.02,1.7c0,0,.11,1.15-.6,1.76,0,0-1.01.9-1.88.3,0,0-.88-.64-3.13-.89h-2.8s-.52.07-1.49-.52c0,0-1.88-1.05-2.91-1.26l-2.97-.73c.98-.59,3.5-.27,3.5-.27.83.15,1.55.19,2.12.19l-.21.29s-.29.77.37.76h3.12s1.08.04,2.22.68c0,0,.42.27.53,0,0,0,.22-.25-.4-.46,0,0-1.32-.75-2.88-.65h-1.75s-1.23-.05-.32-.48l.27-.19c.05,0,.1-.01.15-.02.74-.05,2.28-.06,2.28-.06.51.06.49-.33.49-.33-.04-.27-.64-.15-.64-.15l-1.6.04v-1.19c0-.15-.12-.27-.27-.27s-.27.12-.27.27v1.18l-.82-.02v-2.19c0-.14-.12-.26-.26-.26s-.26.12-.26.26v2.17l-.81-.02v-3.19c0-.15-.12-.27-.27-.27s-.27.12-.27.27v3.16c-1.41-.16-2.43-.17-2.43-.17-1.57-.02-2.05.71-2.05.71h-.76v-9.11c0-.15-.12-.26-.26-.26s-.26.12-.26.26v9.34s0,0,0,0c0,0,0,0,0,0,0,.14.11.25.25.25h1.14l2.9.8s1.78.6,3.36,1.53c0,0,.84.5,1.84.43h2.43s2.08.23,3.27,1.01l1.05,1.28s1.09.36,1.93-.19c0,0,1.27-.65,1.03-2.42l-1.09-1.45s-.14-.62-.26-.94c0,0,.76.06.75-.81ZM10.48,10.02s-.04.09-.09.09h-1.5s-.09-.04-.09-.09v-1.66s.04-.09.09-.09h1.5s.09.04.09.09v1.66ZM22.62,15.34c-.23.24-.56.4-.93.42-.37.02-.7-.12-.95-.36-.24-.23-.4-.56-.42-.93,0-.37.13-.7.37-.96.23-.24.56-.4.93-.42s.7.12.95.36c.24.23.41.57.42.93,0,.37-.13.7-.37.96Z"/>
    <g>
      <path class="cls-1" d="M15.12,5.89h-1.96c-.12,0-.21.09-.21.21v1.96c0,.11.09.21.21.21h1.96c.12,0,.21-.09.21-.21v-1.96c0-.11-.09-.21-.21-.21ZM14.75,7.56c0,.05-.04.1-.1.1h-1c-.05,0-.1-.04-.1-.1v-.92c0-.05.04-.1.1-.1h1c.05,0,.1.04.1.1v.92Z"/>
      <path class="cls-1" d="M13.88,11h-2.44c-.14,0-.26.12-.26.26v2.44c0,.14.12.26.26.26h2.44c.14,0,.26-.12.26-.26v-2.44c0-.14-.12-.26-.26-.26ZM13.56,13.19c0,.08-.06.15-.14.15h-1.51c-.08,0-.14-.07-.14-.15v-1.47c0-.08.06-.15.14-.15h1.51c.08,0,.14.07.14.15v1.47Z"/>
      <path class="cls-1" d="M10.03,15.08h-1.61c-.09,0-.17.08-.17.17v1.61c0,.09.08.17.17.17h1.61c.09,0,.17-.08.17-.17v-1.61c0-.09-.08-.17-.17-.17ZM9.66,16.4s-.03.07-.07.07h-.77s-.07-.03-.07-.07v-.71s.03-.07.07-.07h.77s.07.03.07.07v.71Z"/>
      <path class="cls-1" d="M21.18,7.37c0-.06-.02-.12-.07-.17l-.07-.07s-.07-.04-.1-.05l-.6-.54c-.09-.08-.23-.07-.31.02l-.07.07c-.08.09-.07.23.02.31l.16.15h-2.13c-.17,0-.31.14-.31.31s.14.31.31.31h2.21l-.2.22c-.08.09-.07.23.02.31l.07.07c.09.08.23.07.31-.02l.54-.6s.08-.03.11-.06h.01s0-.02.01-.03l.04-.05c.05-.06.06-.13.05-.2Z"/>
      <path class="cls-1" d="M5.86,23.24c0,.06.02.12.07.17l.07.07s.07.04.1.05l.6.54c.09.08.23.07.31-.02l.07-.07c.08-.09.07-.23-.02-.31l-.16-.15h2.13c.17,0,.31-.14.31-.31s-.14-.31-.31-.31h-2.21l.2-.22c.08-.09.07-.23-.02-.31l-.07-.07c-.09-.08-.23-.07-.31.02l-.54.6s-.08.03-.11.06h-.01s0,.02-.01.03l-.04.05c-.05.06-.06.13-.05.2Z"/>
    </g>
  </g>
</svg>