<?xml version="1.0" encoding="UTF-8"?>
<svg id="Capa_1" xmlns="http://www.w3.org/2000/svg" width="96" height="96" viewBox="0 0 96 96">
  <defs>
    <style>
      .cls-1, .cls-2 {
        fill: #545386;
      }

      .cls-2 {
        fill-rule: evenodd;
      }
    </style>
  </defs>
  <path class="cls-1" d="M48,0C21.49,0,0,21.49,0,48s21.49,48,48,48,48-21.49,48-48S74.51,0,48,0ZM48,92.56c-24.61,0-44.56-19.95-44.56-44.56S23.39,3.44,48,3.44s44.56,19.95,44.56,44.56-19.95,44.56-44.56,44.56Z"/>
  <path class="cls-2" d="M32.11,33.63h0c-2.35,2.35-4.04,5.11-5.07,8.05v.02s-.09.24-.09.24h0s-.08.25-.08.25h0s-.07.25-.07.25v.03s-.07.22-.07.22l-.02.05-.03.13-.02.07-.02.06-.04.13v.05s-.03.08-.03.08l-.03.13v.04s-.01.01-.01.01l-.05.2v.02s-.01.02-.01.02l-.03.11-.03.13h0s-.03.13-.03.13l-.03.13h0s-.03.14-.03.14l-.02.11v.03s-.03.13-.03.13l-.02.09v.04s-.03.13-.03.13l-.02.08v.06s-.03.13-.03.13v.06s-.03.07-.03.07l-.02.13v.04s-.02.09-.02.09l-.02.14v.03s-.02.11-.02.11l-.02.13h0s-.03.27-.03.27h0s-.02.14-.02.14v.11s-.01.02-.01.02v.13s-.03.1-.03.1v.17s-.02.08-.02.08v.06s-.01.13-.01.13v.07s-.01.07-.01.07v.19s-.01.09-.01.09v.13s0,.03,0,.03c-.01.22-.02.43-.02.65v.12s0,.01,0,.01v.76s0,.06,0,.06c.14,5.29,2.23,10.54,6.27,14.58,4.52,4.52,10.76,6.77,17.11,6.19,5.05-.49,9.62-2.6,13.22-6.19,4.19-4.19,6.28-9.68,6.28-15.16,0-.6-.03-1.2-.07-1.79-.02-.05-.04-.41-.05-.49-.06-.52-.13-1.04-.23-1.56-.03-.17-.07-.35-.1-.52-.09-.42-.19-.83-.29-1.24l-.02-.06-.05-.19c-.05-.16-.1-.33-.15-.49v-.03s-.08-.22-.08-.22v-.02s-.08-.23-.08-.23h0s-.08-.24-.08-.24h0s-.08-.23-.08-.23v-.02s-.09-.21-.09-.21v-.03s-.09-.2-.09-.2l-.02-.04h0c-.06-.17-.13-.33-.19-.49l-.07-.16-.03-.07-.07-.16h0l-.1-.21h0s-.05-.11-.05-.11l-.06-.13-.05-.1-.06-.12-.06-.12-.02-.05-.1-.19-.05-.1-.07-.14v-.02c-.12-.21-.23-.41-.35-.62l-.03-.05-.03-.05-.1-.18-.02-.04-.11-.19-.02-.03-.12-.2-.13-.21h0s0-.02,0-.02l-.14-.21h0l-.14-.21h0s-.14-.21-.14-.21v-.02s-.15-.19-.15-.19l-.02-.03-.13-.18-.03-.04-.12-.16-.04-.05-.12-.16-.05-.06h0c-.16-.22-.32-.42-.49-.62l-.02-.03c-.4-.49-.83-.95-1.29-1.4-4.19-4.19-9.68-6.28-15.16-6.28-4.36,0-8.72,1.32-12.42,3.96l-.04.03-.17.13-.04.03-.06.05-.1.08-.05.04-.06.04-.11.08-.05.04-.05.04-.37.29-.04.03-.17.14-.03.03-.17.15-.03.03-.18.15-.02.02-.18.16-.02.02-.19.17h-.01s-.1.1-.1.1l-.09.09h0s-.18.18-.18.18h-.01s0,.02,0,.02l-.1.1-.1.1ZM70.43,35.29c3.53,4.48,5.3,9.85,5.3,15.22,0,4.05-1,8.09-3.01,11.75h0c-.23.43-.47.84-.73,1.26v.02s-.17.24-.17.24h0s-.16.26-.16.26h0s-.16.25-.16.25v.02s-.17.23-.17.23l-.02.03-.15.21-.03.04-.14.2h0s-.14.2-.14.2l-.03.04-.05.07-.13.17-.06.08-.12.15-.08.1-.11.14-.09.11h0l-.19.23-.02.02-.09.11-.12.14h0s-.17.21-.17.21l-.02.03-.07.08-.15.16-.06.07-.16.17-.05.05-.17.18-.03.04-.19.2-.02.02-.21.21h0s-.22.23-.22.23l-.1.1-.1.1-.03.03-.07.07-.1.1c-.28.26-.56.51-.84.75l-.11.09c-4.07,3.43-8.98,5.41-14.02,5.95v8.49h.18s.18-.03.18-.03h.09s.09-.02.09-.02l.18-.02h.18s.18-.04.18-.04l.32-.03h.04s.18-.03.18-.03l.14-.02h.03s.18-.03.18-.03h.1s.08-.02.08-.02l.18-.03.14-.02h.04s.18-.03.18-.03l.18-.03h0l.17-.03.18-.03h.06s.12-.03.12-.03l.18-.03.1-.02h.07s.33-.08.33-.08h.03s.18-.04.18-.04l.18-.04h.02s.16-.04.16-.04l.18-.04h.06s.02-.02.02-.02l.28-.06h0l.11-.03h.07s.18-.06.18-.06l.15-.04h.02s.35-.1.35-.1h.03s.4-.12.4-.12l.11-.03.17-.05.11-.03.4-.12h.02s.35-.12.35-.12h.03c.93-.3,1.84-.63,2.75-1h0c1.68-.69,3.31-1.51,4.89-2.46h0c.36-.22.72-.44,1.08-.68l.05-.03c.21-.14.42-.28.64-.43h.02c.35-.26.7-.51,1.04-.77l.03-.02.31-.24h0l.15-.12.15-.12.03-.03h0s.26-.22.26-.22l.07-.05.08-.07.15-.13.1-.08.05-.04.15-.13.13-.11h.02s.03-.04.03-.04l.27-.23h.01s.13-.13.13-.13l.15-.13.05-.04.09-.09.14-.13.08-.07.06-.06.25-.23h0s.04-.04.04-.04l.14-.14.14-.14c.2-.19.4-.39.6-.59l.05-.05.2-.21.07-.08.06-.06.23-.26c1.23-1.19,2.64-3.16,3.58-4.57l.08-.13.09-.15.13-.2.02-.02.2-.33h.01s.17-.29.17-.29l.04-.06.13-.23.02-.04.11-.2.03-.05.11-.21.04-.08.15-.28h0s.16-.3.16-.3l.03-.06.02-.02c.12-.22.23-.44.34-.67l.02-.04.04-.09.13-.28h.01c.17-.38.34-.75.5-1.12h0s.16-.38.16-.38v-.02s.13-.3.13-.3l.02-.06.02-.04c.15-.37.29-.73.42-1.1v-.02c.19-.51.36-1.01.52-1.53.16-.51.3-1.04.43-1.56l.09-.39c.49-2.11.79-4.2.87-6.37h0s0-.32,0-.32v-.33s.01-.17.01-.17v-.4s0-.08,0-.08v-.32s0,0,0,0v-.32s-.01-.07-.01-.07c-.12-5.01-1.38-9.93-3.74-14.42h-10.25ZM11.85,45.71c-.19,1.44-.28,2.9-.28,4.35,0,8.66,3.31,17.33,9.92,23.93,6.61,6.61,15.27,9.92,23.93,9.92.53,0,1.07-.01,1.6-.04v-8.55c-.53.03-1.07.05-1.6.05-6.48,0-12.96-2.47-17.9-7.42-4.65-4.65-7.11-10.66-7.39-16.75l-8.28-5.5ZM49.84,20.64c6.27.04,12.53,2.52,17.31,7.41.42.43.83.88,1.22,1.34h10.15c-1.45-2.64-3.27-5.12-5.47-7.37-6.46-6.61-14.93-9.92-23.4-9.92-1.97,0-3.94.18-5.89.54l6.07,8ZM60.18,36.24c-3.27-3.28-7.79-5.3-12.79-5.3s-9.52,2.03-12.8,5.3c-3.28,3.27-5.3,7.79-5.3,12.79s2.03,9.52,5.3,12.8c3.28,3.28,7.8,5.3,12.8,5.3s9.52-2.03,12.79-5.3c3.28-3.28,5.3-7.8,5.3-12.8s-2.03-9.52-5.3-12.79ZM48.52,55.61c.64-.14,1.17-.45,1.58-.92.41-.47.6-1.03.6-1.68,0-.57-.17-1.06-.51-1.48-.34-.42-.89-.73-1.67-.95v5.02ZM46.66,41.95c-.5.18-.89.47-1.19.89-.3.41-.44.86-.44,1.35,0,.46.14.87.4,1.26.27.39.68.7,1.23.94v-4.44ZM46.66,55.4v-5.36c-1.66-.48-2.88-1.2-3.66-2.17-.78-.97-1.17-2.15-1.17-3.53s.44-2.58,1.32-3.53c.88-.96,2.05-1.5,3.51-1.65v-1.26h1.87v1.26c1.37.16,2.45.63,3.27,1.39.81.76,1.32,1.79,1.54,3.07l-3.26.42c-.2-1.01-.72-1.69-1.55-2.05v5c2.06.56,3.47,1.28,4.22,2.16.75.88,1.12,2.01,1.12,3.4,0,1.54-.47,2.84-1.41,3.9-.94,1.06-2.25,1.71-3.93,1.98v2.38h-1.87v-2.36c-1.47-.19-2.66-.73-3.59-1.64-.92-.92-1.51-2.21-1.77-3.88l3.34-.39c.14.68.39,1.26.77,1.76.37.49.79.85,1.25,1.07ZM27.45,27.57l.1-.1.1-.1h0s.1-.1.1-.1l.1-.1h.01s.09-.1.09-.1l.1-.1h.01s.09-.1.09-.1l.1-.1.02-.02.08-.08.11-.1.03-.02.08-.07.1-.09.03-.03.07-.06.1-.09.04-.04.07-.06.11-.09.04-.04.07-.05.11-.09.05-.04.06-.04.11-.09.06-.04.05-.04.11-.09.07-.05.05-.04.11-.09.07-.05.04-.03.11-.09.07-.05.03-.03.12-.08.34-.24.11-.08.11-.08.12-.08c3.38-2.27,7.22-3.51,11.1-3.71l-5.36-7.15c-5.42,1.24-10.57,4.03-14.78,8.39-4.6,4.75-7.4,10.66-8.41,16.82l7.18,4.92c.07-5.86,2.27-11.71,6.6-16.19Z"/>
</svg>